<mxfile host="app.diagrams.net" modified="2022-11-17T09:53:43.042Z" agent="5.0 (Windows NT 10.0; Win64; x64) AppleWebKit/537.36 (KHTML, like Gecko) Chrome/107.0.0.0 Safari/537.36" etag="lHWd0F9xiM-wXj_WqrP0" version="20.5.1" type="github">
  <diagram id="en742LVHmLWbZc9pj3z7" name="Page-1">
    <mxGraphModel dx="2249" dy="794" grid="1" gridSize="10" guides="1" tooltips="1" connect="1" arrows="1" fold="1" page="1" pageScale="1" pageWidth="827" pageHeight="1169" math="0" shadow="0">
      <root>
        <mxCell id="0" />
        <mxCell id="1" parent="0" />
        <mxCell id="ND0R27fu-nJ52lA5nmRd-4" value="" style="edgeStyle=orthogonalEdgeStyle;rounded=0;orthogonalLoop=1;jettySize=auto;html=1;" edge="1" parent="1" source="ND0R27fu-nJ52lA5nmRd-1" target="ND0R27fu-nJ52lA5nmRd-3">
          <mxGeometry relative="1" as="geometry" />
        </mxCell>
        <mxCell id="ND0R27fu-nJ52lA5nmRd-1" value="Import a project" style="rounded=0;whiteSpace=wrap;html=1;" vertex="1" parent="1">
          <mxGeometry x="-230" y="230" width="120" height="60" as="geometry" />
        </mxCell>
        <mxCell id="ND0R27fu-nJ52lA5nmRd-3" value="If it has ZW_QA branch" style="rhombus;whiteSpace=wrap;html=1;" vertex="1" parent="1">
          <mxGeometry x="-40" y="200" width="160" height="120" as="geometry" />
        </mxCell>
        <mxCell id="ND0R27fu-nJ52lA5nmRd-5" value="MCD" style="rounded=0;whiteSpace=wrap;html=1;" vertex="1" parent="1">
          <mxGeometry x="240" y="140" width="120" height="60" as="geometry" />
        </mxCell>
        <mxCell id="ND0R27fu-nJ52lA5nmRd-6" value="MCD + MCD_QA" style="rounded=0;whiteSpace=wrap;html=1;" vertex="1" parent="1">
          <mxGeometry x="240" y="310" width="120" height="60" as="geometry" />
        </mxCell>
        <mxCell id="ND0R27fu-nJ52lA5nmRd-7" value="" style="endArrow=classic;html=1;rounded=0;exitX=1;exitY=0.5;exitDx=0;exitDy=0;entryX=0;entryY=0.5;entryDx=0;entryDy=0;" edge="1" parent="1" source="ND0R27fu-nJ52lA5nmRd-3" target="ND0R27fu-nJ52lA5nmRd-5">
          <mxGeometry width="50" height="50" relative="1" as="geometry">
            <mxPoint x="150" y="300" as="sourcePoint" />
            <mxPoint x="200" y="250" as="targetPoint" />
            <Array as="points">
              <mxPoint x="160" y="260" />
              <mxPoint x="160" y="170" />
            </Array>
          </mxGeometry>
        </mxCell>
        <mxCell id="ND0R27fu-nJ52lA5nmRd-8" value="" style="endArrow=classic;html=1;rounded=0;entryX=0;entryY=0.5;entryDx=0;entryDy=0;" edge="1" parent="1" target="ND0R27fu-nJ52lA5nmRd-6">
          <mxGeometry width="50" height="50" relative="1" as="geometry">
            <mxPoint x="160" y="260" as="sourcePoint" />
            <mxPoint x="210" y="350" as="targetPoint" />
            <Array as="points">
              <mxPoint x="160" y="340" />
            </Array>
          </mxGeometry>
        </mxCell>
        <mxCell id="ND0R27fu-nJ52lA5nmRd-10" value="Vertical Container" style="swimlane;" vertex="1" parent="1">
          <mxGeometry x="-40" y="485" width="200" height="200" as="geometry" />
        </mxCell>
        <mxCell id="ND0R27fu-nJ52lA5nmRd-11" value="List" style="swimlane;fontStyle=0;childLayout=stackLayout;horizontal=1;startSize=30;horizontalStack=0;resizeParent=1;resizeParentMax=0;resizeLast=0;collapsible=1;marginBottom=0;" vertex="1" parent="1">
          <mxGeometry x="240" y="510" width="170" height="120" as="geometry" />
        </mxCell>
        <mxCell id="ND0R27fu-nJ52lA5nmRd-12" value="Item 1" style="text;strokeColor=none;fillColor=none;align=left;verticalAlign=middle;spacingLeft=4;spacingRight=4;overflow=hidden;points=[[0,0.5],[1,0.5]];portConstraint=eastwest;rotatable=0;" vertex="1" parent="ND0R27fu-nJ52lA5nmRd-11">
          <mxGeometry y="30" width="170" height="30" as="geometry" />
        </mxCell>
        <mxCell id="ND0R27fu-nJ52lA5nmRd-13" value="Item 2" style="text;strokeColor=none;fillColor=none;align=left;verticalAlign=middle;spacingLeft=4;spacingRight=4;overflow=hidden;points=[[0,0.5],[1,0.5]];portConstraint=eastwest;rotatable=0;" vertex="1" parent="ND0R27fu-nJ52lA5nmRd-11">
          <mxGeometry y="60" width="170" height="30" as="geometry" />
        </mxCell>
        <mxCell id="ND0R27fu-nJ52lA5nmRd-14" value="Item 3" style="text;strokeColor=none;fillColor=none;align=left;verticalAlign=middle;spacingLeft=4;spacingRight=4;overflow=hidden;points=[[0,0.5],[1,0.5]];portConstraint=eastwest;rotatable=0;" vertex="1" parent="ND0R27fu-nJ52lA5nmRd-11">
          <mxGeometry y="90" width="170" height="30" as="geometry" />
        </mxCell>
      </root>
    </mxGraphModel>
  </diagram>
</mxfile>
